<svg width="400" height="400" viewBox="0 0 30 30" xmlns="http://www.w3.org/2000/svg">
    <path d="M21.9741 9.94939L22.0259 10.0027L21.9792 10.0506C21.979 10.0164 21.9774 9.98269 21.9741 9.94939ZM15.6812 1.30331C15.2872 0.898897 14.6481 0.898897 14.2541 1.30331C13.8599 1.70787 13.8599 2.36368 14.2541 2.76824L20.7504 9.43606C20.7147 9.43236 20.6783 9.43014 20.6416 9.43014H2.0859C1.51529 9.43014 1.01764 9.8816 1.00048 10.467C0.98275 11.0729 1.45604 11.5697 2.04221 11.5697H20.6309L14.1403 18.2317C13.7462 18.6363 13.7462 19.2921 14.1403 19.6967C14.3374 19.8988 14.5956 20 14.854 20C15.1122 20 15.3705 19.8988 15.5674 19.6967L23.5869 11.4652C24.1377 10.9 24.1377 9.98326 23.5869 9.41771L15.6812 1.30331Z"/>
</svg>
